<svg version="1" xmlns="http://www.w3.org/2000/svg" width="256" height="256" viewBox="0 0 192.000000 192.000000"><path d="M90.3 33c-1 .3-1.9 1.2-2.1 2-.2.8-.7 1.6-1.2 1.8-.5.2-.6 1-.3 1.9.4 1.1.2 1.4-.5.9-.6-.4-1.1.1-1.1 1.1-.1 3.9-.5 5.3-1.3 5.3-.5 0-.6.4-.3 1 .3.5.1 1-.4 1-.6 0-1.1.5-1.1 1.1 0 .6-2.7 4-6 7.6-10.7 11.4-15.3 24.2-16.2 45.4-.2 4.2-.9 8.3-1.6 9.1-.6.8-.9 1.8-.6 2.1.3.3.2 1.2-.2 1.9-.9 1.3-1 1.8-1.3 3.9 0 .5-.5.8-1 .5-.5-.4-.7.4-.3 1.6.3 1.3.1 1.9-.5 1.5-.6-.4-1 .1-1 1.1 0 3.4-.3 4.3-1.2 3.8-.5-.4-.7.4-.3 1.6.4 1.6.2 1.9-.8 1.3-.9-.5-1.1-.4-.6.4.9 1.3-.2 5.3-1.3 4.7-.4-.3-.7.3-.8 1.2-.2 2.8-.9 5.1-1.6 5.8-.4.4-.7 1.6-.7 2.6 0 1.2-.4 1.7-1.2 1.2-1-.5-1-.4-.1.6.7.8 3.7 1.3 7.1 1.4 5.1.1 5.9-.1 5.7-1.6-.2-.9.4-2.7 1.4-4 1-1.3 1.6-2.9 1.4-3.5-.4-1.2 2.4-4.9 3.1-4.2.2.2 2.1 4 4.1 8.3 7.7 16.3 19 23.7 36 23.7 7.5 0 10.6-.7 16.5-3.7 5.2-2.7 9.6-6.4 13.4-11.6 2.5-3.4 3-3.6 7.6-3.4 2.7.1 5.9-.2 7.1-.6l2-.8-2.1-3c-1.1-1.6-2.2-4.2-2.3-5.9-.1-1.6-.5-2.7-.8-2.5-.9.5-1.9-2.1-1.9-4.7 0-1.1-.7-3.1-1.6-4.4-.9-1.3-1.2-3-.8-3.6.5-.8.3-.9-.6-.4-1 .6-1.2.4-.7-.9.5-1.1.3-1.5-.5-1-.7.5-.9 0-.6-1.4.4-1.4.2-2-.5-1.5-.7.4-.8 0-.4-1.1.4-.9.3-1.4-.2-1.1-1.2.7-2.4-3.1-1.5-4.6.4-.7.3-.9-.4-.6-1.2.8-4.4-7.7-3.4-8.9.4-.4.2-.4-.5-.1-1 .6-2.8-3.9-2.3-5.9.1-.4-.3-1-.9-1.3-.6-.4-1.2-1.9-1.3-3.3-.1-1.5-.5-2.5-.9-2.2-.9.5-2.1-2.5-1.3-3.7.3-.5 0-.9-.6-.9-.7 0-.9-.7-.6-1.6.3-.8.2-1.2-.4-.9-.9.5-1.5-1.5-1.1-3.8 0-.4-.4-.7-1.1-.7-.6 0-.9-.3-.6-.6.4-.3 0-1.7-.7-3.1-.8-1.5-1.1-3.1-.8-3.6.4-.6.1-.7-.7-.2-1 .6-1.2.3-.8-1.3.4-1.2.2-2-.2-1.7-.5.3-.8-.8-.8-2.4.1-1.9.5-2.8 1.3-2.4 3.4 1.2 11.5 14.7 11.5 19 0 1.1.7 1.4 2.6.9 1.5-.4 4-1 5.6-1.3 1.6-.3 3.2-1.1 3.4-1.8.8-2-4.4-14.5-8.3-19.7-3.7-5.2-13.6-12.4-15.3-11.3-.6.3-1 .2-1-.4 0-.5-1.8-1.2-4.1-1.6-3.8-.7-4.3-1.1-6.5-6.2-1.3-3-2.2-5.7-2-6.1.5-.8-10.3-1-13.1-.2zm13 30.5c1.1 2.7 2.5 6.3 3.2 8 .7 1.6 1.9 4.9 2.6 7.2.7 2.4 1.6 4.3 2.1 4.3s.7.4.3.9c-.5.9 0 2.3 2.6 8.6.4 1.1 1 2.9 1.1 4 .3 1.9-.3 2-18.6 2.3-10.4.1-19.3-.1-19.7-.5-.7-.7 1.9-9.1 5.2-16.8.7-1.7 1.3-3.2 1.4-3.5 1.8-6.1 3-9 3.7-9 .4 0 .7-.3.7-.8-.6-3.8 1.9-7 6.8-8.8 5.5-1.9 6.4-1.5 8.6 4.1zm19.3 49c1 .8 1.5 1.5 1 1.5s-.3.7.4 1.5c.6.8.8 2 .4 2.6-.4.7-.3.9.3.6 1.2-.8 2.6 2 1.7 3.4-.3.5 0 .9.6.9.7 0 1 .6.8 1.2-.3.7.1 1.8.8 2.5 2.6 2.6-2.8 15.6-8.8 21.4-6.6 6.3-18.2 7.9-27.5 3.9-11-4.7-17.4-16.4-19.6-35.8l-.4-3.2h23.4c14.9 0 23.3-.4 23.3-1 0-1.4 1.3-1.2 3.6.5z"/></svg>